<mxfile host="Electron" modified="2024-07-07T13:53:55.667Z" agent="Mozilla/5.0 (Windows NT 10.0; Win64; x64) AppleWebKit/537.36 (KHTML, like Gecko) draw.io/24.5.3 Chrome/124.0.6367.207 Electron/30.0.6 Safari/537.36" etag="3kXIqXJTcjLSVCO1B8Kh" version="24.5.3" type="device">
  <diagram name="Page-1" id="Q1NYKUoYp3TI7mR3DrY6">
    <mxGraphModel dx="1050" dy="621" grid="1" gridSize="10" guides="1" tooltips="1" connect="1" arrows="1" fold="1" page="1" pageScale="1" pageWidth="900" pageHeight="1600" math="0" shadow="0">
      <root>
        <mxCell id="0" />
        <mxCell id="1" parent="0" />
        <mxCell id="TG1VyB4dQM0xBjcEcO1O-3" style="edgeStyle=orthogonalEdgeStyle;rounded=0;orthogonalLoop=1;jettySize=auto;html=1;entryX=1;entryY=0.5;entryDx=0;entryDy=0;exitX=0.5;exitY=1;exitDx=0;exitDy=0;" parent="1" source="TG1VyB4dQM0xBjcEcO1O-1" target="TG1VyB4dQM0xBjcEcO1O-2" edge="1">
          <mxGeometry relative="1" as="geometry" />
        </mxCell>
        <mxCell id="TG1VyB4dQM0xBjcEcO1O-1" value="Mantissa Square Root" style="rounded=0;whiteSpace=wrap;html=1;fillColor=#e1d5e7;strokeColor=#9673a6;" parent="1" vertex="1">
          <mxGeometry x="570" y="310" width="150" height="100" as="geometry" />
        </mxCell>
        <mxCell id="TG1VyB4dQM0xBjcEcO1O-2" value="Concatenate" style="ellipse;whiteSpace=wrap;html=1;fillColor=#ffe6cc;strokeColor=#d79b00;" parent="1" vertex="1">
          <mxGeometry x="280" y="460" width="120" height="80" as="geometry" />
        </mxCell>
        <mxCell id="TG1VyB4dQM0xBjcEcO1O-9" style="edgeStyle=orthogonalEdgeStyle;rounded=0;orthogonalLoop=1;jettySize=auto;html=1;entryX=0;entryY=0.5;entryDx=0;entryDy=0;" parent="1" source="TG1VyB4dQM0xBjcEcO1O-6" target="TG1VyB4dQM0xBjcEcO1O-7" edge="1">
          <mxGeometry relative="1" as="geometry" />
        </mxCell>
        <mxCell id="TG1VyB4dQM0xBjcEcO1O-12" value="" style="edgeStyle=orthogonalEdgeStyle;rounded=0;orthogonalLoop=1;jettySize=auto;html=1;" parent="1" source="TG1VyB4dQM0xBjcEcO1O-6" target="TG1VyB4dQM0xBjcEcO1O-11" edge="1">
          <mxGeometry relative="1" as="geometry" />
        </mxCell>
        <mxCell id="TG1VyB4dQM0xBjcEcO1O-6" value="exponent LSB&amp;nbsp;&lt;div&gt;==&lt;div&gt;1&amp;nbsp;&lt;/div&gt;&lt;/div&gt;" style="ellipse;whiteSpace=wrap;html=1;fillColor=#ffe6cc;strokeColor=#d79b00;" parent="1" vertex="1">
          <mxGeometry x="440" y="180" width="120" height="80" as="geometry" />
        </mxCell>
        <mxCell id="TG1VyB4dQM0xBjcEcO1O-8" style="edgeStyle=orthogonalEdgeStyle;rounded=0;orthogonalLoop=1;jettySize=auto;html=1;entryX=0.5;entryY=0;entryDx=0;entryDy=0;" parent="1" source="TG1VyB4dQM0xBjcEcO1O-7" target="TG1VyB4dQM0xBjcEcO1O-1" edge="1">
          <mxGeometry relative="1" as="geometry" />
        </mxCell>
        <mxCell id="TG1VyB4dQM0xBjcEcO1O-7" value="&amp;lt;&amp;lt;" style="ellipse;whiteSpace=wrap;html=1;aspect=fixed;fillColor=#d5e8d4;strokeColor=#82b366;" parent="1" vertex="1">
          <mxGeometry x="605" y="180" width="80" height="80" as="geometry" />
        </mxCell>
        <mxCell id="TG1VyB4dQM0xBjcEcO1O-15" value="" style="edgeStyle=orthogonalEdgeStyle;rounded=0;orthogonalLoop=1;jettySize=auto;html=1;" parent="1" source="TG1VyB4dQM0xBjcEcO1O-11" target="TG1VyB4dQM0xBjcEcO1O-14" edge="1">
          <mxGeometry relative="1" as="geometry" />
        </mxCell>
        <mxCell id="TG1VyB4dQM0xBjcEcO1O-11" value="" style="shape=trapezoid;perimeter=trapezoidPerimeter;whiteSpace=wrap;html=1;fixedSize=1;rotation=-180;fillColor=#dae8fc;strokeColor=#6c8ebf;" parent="1" vertex="1">
          <mxGeometry x="265" y="190" width="150" height="60" as="geometry" />
        </mxCell>
        <mxCell id="TG1VyB4dQM0xBjcEcO1O-16" value="" style="edgeStyle=orthogonalEdgeStyle;rounded=0;orthogonalLoop=1;jettySize=auto;html=1;" parent="1" source="TG1VyB4dQM0xBjcEcO1O-14" target="TG1VyB4dQM0xBjcEcO1O-2" edge="1">
          <mxGeometry relative="1" as="geometry" />
        </mxCell>
        <mxCell id="TG1VyB4dQM0xBjcEcO1O-14" value="&amp;gt;&amp;gt;" style="ellipse;whiteSpace=wrap;html=1;aspect=fixed;fillColor=#d5e8d4;strokeColor=#82b366;" parent="1" vertex="1">
          <mxGeometry x="305" y="270" width="70" height="70" as="geometry" />
        </mxCell>
        <mxCell id="TG1VyB4dQM0xBjcEcO1O-18" style="edgeStyle=orthogonalEdgeStyle;rounded=0;orthogonalLoop=1;jettySize=auto;html=1;entryX=0.75;entryY=1;entryDx=0;entryDy=0;" parent="1" source="TG1VyB4dQM0xBjcEcO1O-17" target="TG1VyB4dQM0xBjcEcO1O-11" edge="1">
          <mxGeometry relative="1" as="geometry" />
        </mxCell>
        <mxCell id="TG1VyB4dQM0xBjcEcO1O-17" value="exponent" style="text;html=1;align=center;verticalAlign=middle;whiteSpace=wrap;rounded=0;" parent="1" vertex="1">
          <mxGeometry x="272" y="128" width="60" height="30" as="geometry" />
        </mxCell>
        <mxCell id="TG1VyB4dQM0xBjcEcO1O-20" value="" style="edgeStyle=orthogonalEdgeStyle;rounded=0;orthogonalLoop=1;jettySize=auto;html=1;entryX=0.25;entryY=1;entryDx=0;entryDy=0;" parent="1" source="TG1VyB4dQM0xBjcEcO1O-19" target="TG1VyB4dQM0xBjcEcO1O-11" edge="1">
          <mxGeometry relative="1" as="geometry" />
        </mxCell>
        <mxCell id="TG1VyB4dQM0xBjcEcO1O-19" value="exponent-1" style="text;html=1;align=center;verticalAlign=middle;whiteSpace=wrap;rounded=0;" parent="1" vertex="1">
          <mxGeometry x="336" y="128" width="82" height="30" as="geometry" />
        </mxCell>
        <mxCell id="TG1VyB4dQM0xBjcEcO1O-21" value="1" style="text;html=1;align=center;verticalAlign=middle;whiteSpace=wrap;rounded=0;" parent="1" vertex="1">
          <mxGeometry x="362" y="205" width="30" height="30" as="geometry" />
        </mxCell>
        <mxCell id="TG1VyB4dQM0xBjcEcO1O-22" value="0" style="text;html=1;align=center;verticalAlign=middle;whiteSpace=wrap;rounded=0;" parent="1" vertex="1">
          <mxGeometry x="287" y="205" width="30" height="30" as="geometry" />
        </mxCell>
        <mxCell id="YzUbkApTRYQr-m4-_VMK-1" value="+" style="ellipse;whiteSpace=wrap;html=1;aspect=fixed;fillColor=#d5e8d4;strokeColor=#82b366;fontSize=23;" vertex="1" parent="1">
          <mxGeometry x="305" y="360" width="70" height="70" as="geometry" />
        </mxCell>
        <mxCell id="YzUbkApTRYQr-m4-_VMK-3" value="" style="edgeStyle=orthogonalEdgeStyle;rounded=0;orthogonalLoop=1;jettySize=auto;html=1;" edge="1" parent="1" source="YzUbkApTRYQr-m4-_VMK-2" target="TG1VyB4dQM0xBjcEcO1O-7">
          <mxGeometry relative="1" as="geometry" />
        </mxCell>
        <mxCell id="YzUbkApTRYQr-m4-_VMK-2" value="mantissa" style="text;html=1;align=center;verticalAlign=middle;whiteSpace=wrap;rounded=0;" vertex="1" parent="1">
          <mxGeometry x="604" y="128" width="82" height="30" as="geometry" />
        </mxCell>
        <mxCell id="YzUbkApTRYQr-m4-_VMK-5" value="" style="edgeStyle=orthogonalEdgeStyle;rounded=0;orthogonalLoop=1;jettySize=auto;html=1;" edge="1" parent="1" source="YzUbkApTRYQr-m4-_VMK-4" target="YzUbkApTRYQr-m4-_VMK-1">
          <mxGeometry relative="1" as="geometry" />
        </mxCell>
        <mxCell id="YzUbkApTRYQr-m4-_VMK-4" value="64" style="text;html=1;align=center;verticalAlign=middle;whiteSpace=wrap;rounded=0;" vertex="1" parent="1">
          <mxGeometry x="415" y="380" width="35" height="30" as="geometry" />
        </mxCell>
      </root>
    </mxGraphModel>
  </diagram>
</mxfile>
